<svg xmlns="http://www.w3.org/2000/svg" viewBox="0 0 96 96">
<!-- SVG created with Arrow, by QuiverAI (https://quiver.ai) -->
  <style type="text/css">.cls-0 {fill:url(#SVGID_1_);}
.cls-1 {opacity:0.2;fill:url(#SVGID_2_);enable-background:new    ;}
.cls-2 {opacity:0.4;fill:none;stroke:#F7C55B;stroke-width:0.5889;stroke-miterlimit:10;enable-background:new    ;}
.cls-3 {fill:#FFFFFF;}
.cls-4 {fill:#DDEBF2;}
.cls-5 {fill:url(#SVGID_3_);}
.cls-6 {fill:#089288;}
.cls-7 {fill:url(#SVGID_4_);}</style>
  <linearGradient id="SVGID_1_" x1="12.51" x2="84.05" y1="-896" y2="-984.9" gradientTransform="matrix(1 0 0 -1 0 -896)" gradientUnits="userSpaceOnUse">
    <stop stop-color="#FBBE3A" offset="0"/>
    <stop stop-color="#EA5422" offset=".7"/>
    <stop stop-color="#DF3425" offset="1"/>
  </linearGradient>
  <path class="cls-0" d="m77.5 96h-59.1c-10.4 0-18.5-8.8-18.4-18v-59.5c0-9.5 8.5-18.6 17.6-18.5h59.8c10 0 18.6 7.9 18.6 18.5v59.5c0 9.6-8.1 18-18.5 18z"/>
  <linearGradient id="SVGID_2_" x1="47.98" x2="47.98" y1="-910.2" y2="-984.4" gradientTransform="matrix(1 0 0 -1 0 -896)" gradientUnits="userSpaceOnUse">
    <stop stop-color="#BE311A" stop-opacity="0" offset="0"/>
    <stop stop-color="#BD2F1A" offset="1"/>
  </linearGradient>
  <path class="cls-1" d="m3.3 46.9v27.9c0 8.8 7.5 18.2 16.8 18.2h53.9c9.9 0 19-5.9 19-17.1l-0.2-26.9c-43-30.7-76.8-23.6-89.5-2.1z"/>
  <path class="cls-2" d="m74 3.3h-51.5c-10.5 0-19.1 7.1-19.1 18.3v26.7c6.3-12.8 20.4-26.5 47.6-26.5 11.7 0 19.6 0.2 23 1.2v-19.7z"/>
  <path d="m67.2 34.4c-2.5-2.4-5-3-7.2-3.2s-5.7-0.3-11.6-0.3-10.1 0.1-12.5 0.4c-2.5 0.3-4.8 1.3-6.9 3.7-2.9 3.2-6.4 15.6-7 21.9-0.3 4.8 2.7 8.1 6.5 8.2 2.5 0.2 4.6-0.7 5.9-2 1.3-1.2 3.7-4.3 4.8-5.4 1.9-1.9 3.5-1.8 9.2-1.8s7.1-0.2 9.1 1.8c1 1.1 3.5 4.1 4.7 5.4s3.4 2.3 5.9 2.1c3.4-0.1 6.6-2.6 6.7-7.1 0-3.7-3.1-20-7.6-23.7z" fill-opacity=".09804"/>
  <path d="m66.4 34.2c-2.5-2.3-4.8-2.6-7-2.8-2.1-0.2-5.7-0.4-11.3-0.4-5.7 0-9.1 0.1-11.5 0.4-3.4 0.3-5.5 1.6-7.3 3.5-2.7 3-5.9 14.2-6.6 20.5-0.6 4.4 1.8 7.3 5.5 7.4 2.3 0.1 4.1-0.7 5.3-1.9 1.2-1.1 3.8-4.4 4.8-5.3 1.9-1.7 3.2-1.7 8.8-1.8 5.6 0 6.9 0.1 8.7 1.3 1.1 0.9 3.8 4.3 5.1 5.5 1.2 1.3 3 2.3 5.4 2.2 3 0 6.4-1.8 6.6-6 0.2-3.5-2.5-19.4-6.5-22.6z" opacity=".09804"/>
  <radialGradient id="SVGID_3_" cx="48.21" cy="45.56" r="22.36" gradientTransform="matrix(1 0 0 -1 0 95)" gradientUnits="userSpaceOnUse">
    <stop stop-color="#AE411A" offset="0"/>
    <stop stop-color="#fff" offset="1"/>
  </radialGradient>
  <path class="cls-5" d="m66.7 35.2c-2.2-2.2-4.3-3.2-7.6-3.4-2.3-0.2-6.2-0.4-10.9-0.4s-8.6 0.1-11.4 0.4c-3.1 0.3-5.4 1.4-7.2 3.6-2.5 3.1-5.9 13.5-6.6 21.1-0.4 4.7 2.8 7.8 6.6 7.6 1.9-0.1 3.3-0.7 4.5-1.9s3.6-4.3 4.7-5.3c1.7-1.5 3.5-1.6 5.4-1.7 2.3-0.1 6.5-0.1 8.9 0 2.5 0.1 3.8 0.7 4.9 1.9 0.9 0.9 3.3 3.9 4.5 5.1s2.9 1.9 4.8 1.9c2.6 0 5.9-1.5 5.9-6.5-0.1-4.2-2.8-17.3-6.5-22.4z"/>
  <path class="cls-3" d="m66.7 35.4c-1.7-1.8-3.6-2.9-6.5-3.4-2.3-0.3-6.7-0.6-12-0.5-5.4 0-9.7 0.1-12.2 0.5-2.4 0.3-4.9 1.6-6.6 3.9-2.6 3.6-5.7 13.7-6.4 20.6-0.5 5.4 3.4 7.9 6.5 7.6 2-0.1 3.2-0.8 4.3-1.8 1.2-1.2 3.8-4.4 4.8-5.3 1.2-1.2 2.7-1.6 4.2-1.7 2.3-0.2 7.3-0.2 9.8-0.1 2.3 0.1 3.7 0.4 5.2 1.9 0.9 0.9 3.5 4.1 4.6 5.2 1.2 1.2 3 1.9 4.6 1.8 2.6 0 6.1-1.4 6.2-6.5-0.1-4-2.8-18-6.5-22.2z"/>
  <path class="cls-4" d="m33.5 41.8h-0.8c-1 0-2.2 1-2.1 2.2 0 1.1 0.9 2.4 2.1 2.4h0.7c1.2 0.1 2.2-1 2.2-2.4 0-1-0.8-2.2-2.1-2.2z"/>
  <path class="cls-3" d="m33.5 41.8h-0.8c-1 0-1.9 0.6-1.9 1.8s0.7 1.9 1.7 1.9h1c1.1 0.1 1.8-0.8 1.7-1.9s-0.8-1.8-1.7-1.8z"/>
  <path class="cls-4" d="m63.5 41.5c-1 0-2.4 0.9-2.1 2.8 0.3 1 1 2.3 2.4 2.3 1.6 0 2.6-1 2.6-2.6 0-1.2-1.2-2.5-2.9-2.5z"/>
  <path class="cls-3" d="m63.5 41.6c-1 0-2.1 0.9-2.1 2 0 1.2 0.9 2.1 2.1 2.1 1 0 2-0.9 2-2.1 0-1.1-0.9-2.1-2-2z"/>
  <linearGradient id="SVGID_4_" x1="52.91" x2="61.19" y1="52.11" y2="56.8" gradientTransform="matrix(1 0 0 -1 0 95)" gradientUnits="userSpaceOnUse">
    <stop stop-color="#089288" offset="0"/>
    <stop stop-color="#008C80" offset="1"/>
  </linearGradient>
  <path class="cls-7" d="m59.3 37.3c-1.2 0-2 1-2 2.1 0 1 0.9 2.1 2 2.1s2-0.9 2-2.1c0-1.1-0.9-2.1-2-2.1zm-4.3 4.3c-1 0-2.1 0.9-2.1 2s0.9 2.1 2.1 2.1 2.1-0.9 2.1-2c0-1.2-1-2.1-2.1-2.1zm4.3 4.2c-1.1 0-2 0.9-2 2s0.9 2.1 2 2.1 2-0.9 2-2.1c0-1-0.8-2-2-2z"/>
  <path class="cls-6" d="m37 37.4c-0.9 0-1.7 0.6-1.8 1.5v1.4c0.2 0.8 0.8 1.5 1.8 1.5 0.8 0 1.8-0.7 1.8-1.7v-1.2c-0.1-0.9-0.9-1.6-1.8-1.5zm0 8.2c-0.9 0-1.8 0.6-1.8 1.6v1.4c0.1 0.8 0.8 1.4 1.7 1.4s1.8-0.6 1.9-1.5v-1.3c-0.1-1-0.9-1.6-1.8-1.6zm4.5-3.7h-1.3c-0.9 0-1.5 0.8-1.5 1.7s0.6 1.9 1.7 1.9h1.1c0.9 0 1.5-0.7 1.5-1.8 0-1-0.6-1.8-1.5-1.8z"/>
  <path class="cls-4" d="m39.3 46.9h-0.5v0.3l-1.8 1.8-1.7-1.7v-0.4h-0.5l0.1 1.8c0.1 1.2 1.1 2.3 2.2 2.2 1.3 0.1 2-0.9 2.2-1.9v-2.1z"/>
  <path class="cls-4" d="m59.4 39.2-1.7-1.1h-0.4l0.1 1.3c0 0.4 0.4 2.7 2.1 2.7 2 0.1 2.3-1.9 2.3-2.7l-0.1-1.3h-0.5l-1.8 1.1z"/>
  <path class="cls-4" d="m59.3 47.8-1.8-0.9h-0.4v1.2c0.2 0.3 0.3 2.7 2.2 2.7s2.4-1.8 2.4-2.3l-0.1-1.6h-0.4l-1.9 0.9z"/>
</svg>
